<svg width="33" height="32" viewBox="0 0 33 32" fill="none" xmlns="http://www.w3.org/2000/svg">
<path d="M7.36865 23.0178V8.98269C7.36865 7.82537 7.36865 7.24606 7.61219 6.90364C7.82475 6.60478 8.15238 6.40856 8.51611 6.36165C8.93271 6.30792 9.44366 6.58042 10.4641 7.12465L23.622 14.1422L23.6268 14.1443C24.7545 14.7458 25.3186 15.0466 25.5036 15.4476C25.6651 15.7974 25.6651 16.2012 25.5036 16.5511C25.3183 16.9526 24.7529 17.2547 23.622 17.8578L10.4641 24.8754C9.44293 25.42 8.93286 25.6915 8.51611 25.6377C8.15238 25.5908 7.82475 25.3946 7.61219 25.0958C7.36865 24.7533 7.36865 24.1751 7.36865 23.0178Z" fill="white" stroke="white" stroke-width="3" stroke-linecap="round" stroke-linejoin="round"/>
</svg>
